<?xml version="1.0" encoding="UTF-8" standalone="no"?>
<!-- Created with Inkscape (http://www.inkscape.org/) -->

<svg
   xmlns:dc="http://purl.org/dc/elements/1.1/"
   xmlns:cc="http://creativecommons.org/ns#"
   xmlns:rdf="http://www.w3.org/1999/02/22-rdf-syntax-ns#"
   xmlns:svg="http://www.w3.org/2000/svg"
   xmlns="http://www.w3.org/2000/svg"
   xmlns:sodipodi="http://sodipodi.sourceforge.net/DTD/sodipodi-0.dtd"
   xmlns:inkscape="http://www.inkscape.org/namespaces/inkscape"
   width="3.9511111mm"
   height="3.6777117mm"
   viewBox="0 0 14 13.031262"
   id="svg2"
   version="1.1"
   inkscape:version="0.91 r13725"
   sodipodi:docname="legend.svg">
  <defs
     id="defs4" />
  <sodipodi:namedview
     id="base"
     pagecolor="#ffffff"
     bordercolor="#666666"
     borderopacity="1.0"
     inkscape:pageopacity="0.0"
     inkscape:pageshadow="2"
     inkscape:zoom="36.655556"
     inkscape:cx="8.0696181"
     inkscape:cy="6.3891115"
     inkscape:document-units="px"
     inkscape:current-layer="sprite"
     showgrid="false"
     fit-margin-top="0"
     fit-margin-left="0"
     fit-margin-right="0"
     fit-margin-bottom="0"
     inkscape:window-width="1536"
     inkscape:window-height="801"
     inkscape:window-x="-8"
     inkscape:window-y="-8"
     inkscape:window-maximized="1" />
  <metadata
     id="metadata7">
    <rdf:RDF>
      <cc:Work
         rdf:about="">
        <dc:format>image/svg+xml</dc:format>
        <dc:type
           rdf:resource="http://purl.org/dc/dcmitype/StillImage" />
        <dc:title></dc:title>
      </cc:Work>
    </rdf:RDF>
  </metadata>
  <g
     inkscape:label="Layer 1"
     inkscape:groupmode="layer"
     id="layer1"
     transform="translate(-274.02192,-483.18664)">
    <g
       id="sprite"
       style="fill:#000000"
       transform="translate(223.64285,369.43364)">
      <path
         d="m 57.379069,113.75301 c -0.1012,-5e-4 -0.19265,0.0145 -0.28125,0.0625 l -6.71875,1.96875 0,1 6.71875,1.9375 c 0.088,0.048 0.18075,0.0625 0.28125,0.0625 0.1001,0 0.19325,-0.0145 0.28125,-0.0625 l 6.71875,-1.9375 0,-1 -6.71875,-1.96875 c -0.088,-0.048 -0.18155,-0.0625 -0.28125,-0.0625 z m -7,7.03125 6.71875,1.9375 c 0.088,0.048 0.18075,0.0625 0.28125,0.0625 0.1001,0 0.19325,-0.0145 0.28125,-0.0625 l 6.71875,-1.9375 0,-2 -6.71875,1.9375 c -0.088,0.048 -0.18115,0.0625 -0.28125,0.0625 -0.1005,0 -0.19325,-0.0145 -0.28125,-0.0625 l -6.71875,-1.9375 z m 0,4 6.71875,1.9375 c 0.088,0.048 0.18075,0.0625 0.28125,0.0625 0.1001,0 0.19325,-0.0145 0.28125,-0.0625 l 6.71875,-1.9375 0,-2 -6.71875,1.9375 c -0.088,0.048 -0.18115,0.0625 -0.28125,0.0625 -0.1005,0 -0.19325,-0.0145 -0.28125,-0.0625 l -6.71875,-1.9375 z"
         id="layers"
         inkscape:connector-curvature="0" />
    </g>
  </g>
</svg>
